<svg width="18" height="16" viewBox="0 0 18 16" fill="none" xmlns="http://www.w3.org/2000/svg">
<path d="M9 0.19801C4.02806 0.19801 0 3.78151 0 8.19801C0 11.7345 2.5785 14.732 6.15206 15.7895C6.60375 15.865 6.76687 15.6175 6.76687 15.4035C6.76687 15.2135 6.76181 14.711 6.75844 14.044C4.25363 14.526 3.726 12.9685 3.726 12.9685C3.31594 12.0465 2.72419 11.799 2.72419 11.799C1.90969 11.3045 2.78888 11.315 2.78888 11.315C3.69113 11.3695 4.16588 12.1375 4.16588 12.1375C4.96856 13.3615 6.27188 13.0075 6.78769 12.8015C6.86644 12.286 7.101 11.9315 7.35638 11.734C5.35838 11.5335 3.25744 10.846 3.25744 7.78051C3.25744 6.90501 3.60619 6.19201 4.18275 5.63201C4.08319 5.43151 3.77831 4.61651 4.26206 3.51451C4.26206 3.51451 5.01525 3.30101 6.73706 4.33501C7.45763 4.15751 8.22263 4.06901 8.98706 4.06451C9.75206 4.06901 10.5165 4.15801 11.2371 4.33501C12.9487 3.30101 13.7014 3.51451 13.7014 3.51451C14.1846 4.61651 13.8797 5.43101 13.7919 5.63201C14.3629 6.19201 14.7116 6.90551 14.7116 7.78051C14.7116 10.853 12.6079 11.5305 10.6076 11.726C10.9204 11.9655 11.2134 12.458 11.2134 13.2055C11.2134 14.2755 11.2022 15.1375 11.2022 15.398C11.2022 15.606 11.3597 15.856 11.8232 15.7755C15.4232 14.729 17.9989 11.729 17.9989 8.19751C17.9989 3.78101 13.9708 0.19751 8.99888 0.19751L9 0.19801Z" fill="#123C69"/>
</svg>
