<svg width="18" height="16" viewBox="0 0 18 16" fill="none" xmlns="http://www.w3.org/2000/svg">
<path d="M8.99972 0C5.55547 0 2.75342 2.49108 2.75342 5.55271C2.75342 8.4998 8.42079 15.3852 8.66211 15.6768L8.88732 15.9493C8.91366 15.9813 8.9556 16 8.99972 16C9.04452 16 9.08619 15.9813 9.1128 15.9493L9.33788 15.6768C9.57933 15.3852 15.2466 8.4998 15.2466 5.55271C15.2466 2.49108 12.4441 0 8.99972 0ZM8.99972 3.56374C10.2338 3.56374 11.2373 4.45579 11.2373 5.55271C11.2373 6.64907 10.2338 7.54169 8.99972 7.54169C7.76636 7.54169 6.76213 6.64907 6.76213 5.55271C6.76213 4.45579 7.76632 3.56374 8.99972 3.56374Z" fill="#123C69"/>
</svg>
