<svg width="91" height="65" viewBox="0 0 91 65" fill="none" xmlns="http://www.w3.org/2000/svg">
<path d="M24.1833 1.4858C23.9671 1.77903 23.5008 3.13768 23.2391 4.20309C23.1026 4.77978 23.0458 5.49332 23.0458 6.54895C23.0458 8.08354 23.1368 8.69933 23.5576 9.86249L23.7851 10.4881L23.4553 10.7911C22.3178 11.8076 20.9755 13.8505 20.384 15.4437C19.8494 16.9099 19.6788 17.985 19.6788 20.0279C19.6788 22.6084 20.0086 24.7978 20.6798 26.655L20.9073 27.2708H17.3583C13.5135 27.261 11.1589 27.3685 8.07626 27.6715C6.02876 27.867 2.99163 28.2873 2.87788 28.3753C2.65038 28.5805 3.17363 28.561 4.77751 28.3362C9.16826 27.7008 16.1639 27.3196 19.7015 27.5151L21.0438 27.5835L21.2713 28.0332C21.7604 28.9715 21.8741 28.8933 19.8266 28.9617C15.2653 29.1279 9.62326 29.7926 5.46001 30.6527C3.02576 31.1512 2.95751 31.1708 3.02576 31.3076C3.07126 31.4053 3.35563 31.376 4.29976 31.161C8.46301 30.2226 14.1846 29.4993 19.7356 29.2256C22.0675 29.1084 21.7718 29.0204 22.5453 30.076C24.8999 33.2918 29.2565 35.4031 35.5469 36.4001C36.3659 36.5271 37.3441 36.664 37.7309 36.7031L38.4361 36.7715L37.765 37.3091C36.9119 37.9835 36.2294 38.9121 35.763 40.0264C35.4218 40.8572 35.3763 40.9159 34.9099 41.1211C33.3515 41.7956 30.667 42.0008 29.0631 41.5708C27.4479 41.1309 26.1966 40.2219 24.8885 38.5407C24.4676 38.0031 23.7624 37.27 23.3301 36.9181C21.8969 35.755 19.8608 35.1099 18.473 35.3738C17.0398 35.6474 17.3128 36.3317 19.1896 37.182C20.6911 37.8565 21.6694 38.7459 22.75 40.3881C24.2401 42.6362 25.3776 43.6918 27.1294 44.4347C27.6981 44.6693 28.4603 44.9332 28.8356 45.0211C29.8366 45.2557 32.6349 45.3144 33.9999 45.1189C34.5914 45.0407 35.126 45.0016 35.1829 45.0309C35.2625 45.07 35.2739 46.4287 35.2284 48.8625L35.1488 52.6354L34.8075 53.2414C34.398 53.9452 34.034 54.2287 32.9761 54.6978C32.1913 55.0302 31.9638 55.2354 31.9638 55.6068C31.9638 55.9587 32.3846 56.1053 33.4425 56.1053C36.0929 56.0956 38.1973 55.1377 38.9139 53.6129C39.1755 53.0264 39.1869 52.9873 39.2438 48.2858C39.312 43.8287 39.3234 43.5061 39.5509 42.9392C39.7898 42.3234 40.1993 41.7369 40.3926 41.7369C40.4609 41.7369 40.495 44.3369 40.4723 48.8527L40.4381 55.9587L40.1765 56.379C40.04 56.6038 39.6988 56.9264 39.4371 57.0926C38.8911 57.4347 38.6864 57.6986 38.675 58.0798C38.6636 58.9497 40.3244 58.9693 42.2354 58.1482C43.043 57.7963 43.6686 57.3174 44.1123 56.7114C44.8289 55.7437 44.8175 55.8903 44.8175 48.1392C44.8175 42.7926 44.8516 41.0625 44.954 40.9745C45.136 40.8181 45.6934 40.8279 45.8071 40.9843C45.8526 41.0429 45.9209 44.3956 45.955 48.4324L46.0119 55.7632L46.2735 56.2129C46.8764 57.2587 48.0253 58.0505 49.5723 58.4903C50.5278 58.764 50.9714 58.8031 51.5174 58.6369C51.9155 58.5099 52.0975 58.2948 52.0975 57.9038C52.0975 57.7181 51.9383 57.5226 51.5174 57.1903C50.8576 56.682 50.5846 56.2813 50.4026 55.5384C50.2434 54.8738 50.2206 41.8347 50.3913 41.8347C50.5505 41.8347 51.0283 42.5873 51.2558 43.2031C51.4378 43.6723 51.4719 44.3076 51.5288 48.3835C51.5856 52.9189 51.597 53.0362 51.8473 53.5835C52.5639 55.1181 54.6683 56.1053 57.2049 56.1053C58.2855 56.1053 58.695 55.9587 58.695 55.5873C58.695 55.2354 58.3993 54.9617 57.6485 54.6196C56.8409 54.2482 56.2039 53.6129 55.874 52.8602C55.6124 52.2347 55.51 50.2211 55.51 44.9625C55.4986 40.9745 55.4531 40.6617 54.6341 39.2053C54.2133 38.4527 53.963 38.1497 53.235 37.5144C52.4046 36.8106 52.3591 36.752 52.6435 36.752C52.8141 36.752 53.6218 36.664 54.4408 36.5565C60.9245 35.7256 65.1674 33.8783 67.4765 30.8775C67.8291 30.4279 68.2273 29.8512 68.3751 29.5873C68.5344 29.3136 68.7164 29.1279 68.8301 29.1279C69.615 29.1279 73.4939 29.3625 75.348 29.5189C79.2838 29.861 83.5721 30.4963 86.4728 31.1708C87.4396 31.3956 87.7013 31.4249 87.7467 31.3174C87.8036 31.1805 87.7923 31.1805 86.0405 30.7993C83.4925 30.2422 79.9094 29.6948 76.8381 29.382C74.8589 29.1768 71.1393 28.9324 70.0131 28.9324C69.5126 28.9324 69.0349 28.8933 68.9666 28.8542C68.8529 28.7956 68.8756 28.6392 69.0576 28.1798L69.2851 27.5835L70.9573 27.5151C72.7318 27.4369 76.7016 27.5053 79.3406 27.6715C81.9455 27.8279 84.7893 28.1309 87.7467 28.5708C87.8036 28.5805 87.8605 28.5414 87.8946 28.473C87.9515 28.3459 87.3941 28.2384 85.2556 27.955C81.2744 27.4467 78.2145 27.2708 73.2095 27.2708C69.8084 27.261 69.3761 27.2512 69.433 27.1144C69.5581 26.8211 69.9449 24.964 70.0928 23.9474C70.1724 23.3708 70.2406 21.8069 70.2406 20.3798C70.2406 18.3076 70.2065 17.682 70.0359 16.9685C69.433 14.4272 68.2386 12.3452 66.248 10.4099L65.6565 9.82339L65.8158 9.2858C66.4073 7.32114 66.2821 4.93617 65.4518 2.54144C65.0309 1.32941 64.974 1.27076 64.1664 1.27076C61.88 1.27076 58.1604 2.51212 55.0209 4.33016L54.3611 4.71136L52.9165 4.45723C49.9931 3.95873 48.8556 3.87076 45.2725 3.86098C42.6335 3.86098 41.587 3.90009 40.3813 4.03693C38.857 4.22264 36.7071 4.56475 35.7061 4.79933C35.1943 4.91663 35.1829 4.91663 34.5118 4.52565C31.0993 2.54144 27.3796 1.27076 25.0136 1.27076C24.4449 1.27076 24.3198 1.30008 24.1833 1.4858ZM39.9945 18.0437C43.2933 18.249 46.9901 18.249 50.3344 18.0339C53.8038 17.8189 56.6361 17.8678 57.9329 18.1708C59.2751 18.4738 60.3216 18.9918 61.3113 19.8422C62.699 21.0249 63.6204 22.3347 63.9844 23.6835C64.3143 24.8956 64.1436 27.3685 63.6204 28.9226C62.3236 32.7738 58.9908 34.5723 52.2113 35.0805C48.412 35.3738 41.496 35.2956 38.1176 34.9437C31.8159 34.2693 28.2328 32.3535 26.8109 28.8835C26.3559 27.7693 26.2194 26.9384 26.2194 25.3647C26.2194 24.0843 26.2535 23.8106 26.4924 23.2144C26.845 22.3053 27.391 21.4647 28.21 20.585C29.6546 19.0211 31.1675 18.3076 33.7838 17.9557C34.5118 17.858 37.7309 17.8971 39.9945 18.0437ZM21.4988 36.3121C21.6808 36.4978 21.567 36.752 21.294 36.752C21.0324 36.752 20.657 36.4099 20.7594 36.273C20.8618 36.1166 21.3395 36.1459 21.4988 36.3121ZM22.8183 37.1723C23.1936 37.4459 23.1254 37.7294 22.7045 37.7294C22.3178 37.7294 21.9765 37.3091 22.1813 37.0941C22.3746 36.8986 22.4543 36.9084 22.8183 37.1723ZM24.3766 38.6189C24.7975 39.1174 24.2856 39.5377 23.751 39.1271C23.5463 38.9708 23.4666 38.5114 23.6259 38.3745C23.7851 38.2474 24.1491 38.3647 24.3766 38.6189ZM25.9236 40.2317C26.208 40.5444 26.2194 40.6911 25.9919 40.8572C25.6051 41.1309 24.8771 40.6129 24.9909 40.1437C25.0705 39.87 25.6506 39.9287 25.9236 40.2317ZM27.8688 41.6783C28.1418 41.9324 28.119 42.1865 27.8119 42.2843C27.3114 42.4505 26.5493 41.9031 26.845 41.5903C27.0611 41.3655 27.5616 41.4144 27.8688 41.6783ZM34.9895 41.7956C34.9554 41.8835 34.9213 42.0595 34.9213 42.1865C34.9213 42.4407 34.6141 42.5091 34.3753 42.3038C34.0681 42.0399 34.307 41.6392 34.7848 41.6392C34.9895 41.6392 35.0464 41.6783 34.9895 41.7956ZM30.3258 42.3332C30.5988 42.5971 30.4168 42.8512 29.9276 42.8903C29.5068 42.9294 29.12 42.6948 29.12 42.4114C29.12 42.079 29.9959 42.0204 30.3258 42.3332ZM32.851 42.2843C33.1468 42.4602 33.1581 42.5482 32.9193 42.7535C32.7145 42.9392 32.0661 42.9587 31.8728 42.7926C31.3723 42.3625 32.2368 41.9129 32.851 42.2843Z" fill="white"/>
<path d="M34.3639 22.6963C33.0671 23.2436 32.3278 25.1692 32.8055 26.782C33.1809 28.0429 34.0226 28.8346 35.0691 28.9128C36.1725 28.991 36.9915 28.4241 37.5489 27.1827C37.7536 26.7527 37.7991 26.4399 37.7991 25.7068C37.7991 24.485 37.5034 23.8106 36.6958 23.1166C35.8995 22.4324 35.2511 22.3151 34.3639 22.6963ZM34.6369 23.8008C35.3876 24.4361 34.3525 25.3452 33.579 24.7294C33.2491 24.4655 33.2605 24.094 33.6131 23.8008C33.9658 23.488 34.2843 23.488 34.6369 23.8008Z" fill="white"/>
<path d="M54.8161 22.7061C52.8938 23.5858 52.5184 26.831 54.1791 28.3362C55.1915 29.255 56.693 29.0986 57.5461 27.9843C58.877 26.2543 58.2969 23.3708 56.4883 22.667C55.8626 22.4227 55.419 22.4325 54.8161 22.7061ZM55.3963 23.8498C55.6693 24.0843 55.6806 24.3189 55.4418 24.6122C55.0778 25.0618 54.145 24.7783 54.145 24.2212C54.145 23.967 54.5545 23.6543 54.8844 23.6543C55.0436 23.6543 55.2711 23.7422 55.3963 23.8498Z" fill="white"/>
<path d="M44.7265 29.2941C44.5445 29.3527 44.2488 29.8414 44.2488 30.0858C44.2488 30.1933 44.3512 30.3888 44.4877 30.5354C44.6697 30.7407 44.8175 30.7896 45.2157 30.7896C45.6138 30.7896 45.7617 30.7407 45.9437 30.5354C46.2622 30.1835 46.2508 29.7632 45.8982 29.47C45.6365 29.2354 45.1133 29.1572 44.7265 29.2941Z" fill="white"/>
<path d="M42.9634 31.9918C42.861 32.2166 43.3729 32.8715 43.8847 33.1843C44.3284 33.4482 44.4762 33.4775 45.2156 33.4775C45.955 33.4775 46.1029 33.4482 46.5465 33.1843C47.0584 32.8715 47.5702 32.2166 47.4679 31.9918C47.3541 31.7475 47.0356 31.8648 46.774 32.2557C46.4669 32.7151 45.8185 33.0377 45.1929 33.0377C44.6014 33.0377 43.8961 32.676 43.6231 32.2264C43.3956 31.8648 43.0771 31.7475 42.9634 31.9918Z" fill="white"/>
</svg>
