<svg width="18" height="16" viewBox="0 0 18 16" fill="none" xmlns="http://www.w3.org/2000/svg">
<path d="M17.8071 12.1338C17.137 11.0079 14.8102 9.78702 14.7077 9.73363C14.4088 9.58235 14.0968 9.50227 13.8048 9.50227C13.3706 9.50227 13.0153 9.67905 12.8 10.0006C12.4597 10.3624 12.0375 10.7854 11.9351 10.851C11.1422 11.3291 10.5216 11.2748 9.83485 10.6644L6.00206 7.25719C5.31966 6.65061 5.25693 6.09209 5.79117 5.39118C5.86592 5.29953 6.34176 4.92402 6.74886 4.62117C7.00848 4.48384 7.18667 4.27977 7.26475 4.02943C7.36853 3.69633 7.29211 3.3045 7.04718 2.92276C6.98946 2.83496 5.61531 0.766365 4.34929 0.171059C4.11303 0.0598284 3.84675 0.00109863 3.57979 0.00109863C3.13999 0.00109863 2.72621 0.153559 2.41521 0.429707L1.5683 1.18222C0.228861 2.37253 -0.255993 3.72184 0.126418 5.19245C0.445427 6.41807 1.37509 7.72228 2.89005 9.06862L7.79699 13.4303C9.71438 15.1347 11.5423 15.999 13.2302 15.999C14.4718 15.999 15.6287 15.5301 16.6692 14.6055L17.5158 13.853C18.0303 13.3959 18.1471 12.7048 17.8071 12.1338Z" fill="#123C69"/>
</svg>
