<svg width="93" height="49" viewBox="0 0 93 49" fill="none" xmlns="http://www.w3.org/2000/svg">
<path d="M1.52876 22.427V0.376953H9.1726C10.574 0.376953 11.7205 0.565415 12.4849 0.942338C13.2493 1.31926 13.8863 2.07311 14.2685 3.01541C14.7781 4.14618 15.0329 5.27695 14.9055 6.59618C14.9055 8.85772 14.2685 10.7423 12.8671 11.8731C12.4849 12.25 11.9753 12.627 11.3384 12.627C11.7205 12.8154 12.2301 13.1923 12.6123 13.5693C12.8671 13.9462 13.1219 14.3231 13.3767 14.7C13.6315 15.077 13.8863 15.6423 14.0137 16.0193L16.3068 22.427H10.9562L8.53561 15.6423C8.15342 14.8885 7.89862 14.3231 7.64383 13.9462C7.26164 13.5693 6.87945 13.3808 6.49725 13.3808H6.11506V22.2385L1.52876 22.427ZM6.11506 9.23465H8.02602C8.40821 9.23465 8.7904 9.04618 9.29999 8.85772C9.55479 8.85772 9.80958 8.4808 10.0644 8.10388C10.574 7.16157 10.4466 6.0308 9.93698 5.27695C9.55479 5.08849 8.9178 4.90003 8.15342 4.90003H6.11506V9.23465ZM0.509583 41.2731L4.84109 40.8962C4.96849 42.027 5.09588 42.7808 5.47808 43.3462C5.98767 44.2885 6.62465 44.6654 7.51643 44.6654C8.15342 44.6654 8.66301 44.477 9.0452 43.9116C9.42739 43.5346 9.55479 42.9693 9.55479 42.4039C9.55479 41.8385 9.42739 41.2731 9.0452 40.8962C8.66301 40.5193 7.89862 39.9539 6.62465 39.577C4.58629 38.8231 3.18493 38.0693 2.29314 36.9385C1.40136 35.8077 1.01917 34.3 1.01917 32.6039C1.01917 31.4731 1.27397 30.3423 1.65616 29.4C2.16575 28.2693 2.80273 27.5154 3.69451 26.95C4.5863 26.3846 5.86027 26.0077 7.38903 26.0077C9.29999 26.0077 10.7014 26.5731 11.7205 27.5154C12.7397 28.6462 13.2493 30.1539 13.5041 32.6039L9.1726 32.9808C9.0452 32.0385 8.7904 31.2846 8.40821 30.7193C8.02602 30.3423 7.51643 29.9654 6.87945 29.9654C6.36986 29.9654 5.98766 30.1539 5.73287 30.5308C5.47808 30.9077 5.35068 31.2846 5.35068 31.85C5.35068 32.227 5.47808 32.6039 5.73287 32.7923C5.98766 33.1693 6.49725 33.3577 7.26164 33.5462C9.29999 34.1116 10.7014 34.8654 11.5931 35.4308C12.4849 36.1846 13.1219 36.9385 13.5041 37.8808C13.8863 38.8231 14.1411 39.9539 14.1411 41.0846C14.1411 42.4039 13.8863 43.9116 13.3767 45.0423C12.8671 46.1731 12.1027 47.1154 11.211 47.6808C10.0644 48.6231 8.7904 49 7.38903 49C4.84109 49 3.05753 48.2462 2.16575 46.7385C1.14657 45.4193 0.63698 43.5346 0.509583 41.2731Z" fill="white"/>
<path d="M22.5493 39.5768L26.626 41.4614C26.3712 42.9691 25.989 44.4768 25.352 45.6076C24.8424 46.7384 24.0781 47.4922 23.1863 48.0576C22.2945 48.623 21.2753 48.9999 19.874 48.9999C18.2178 48.9999 16.9438 48.623 15.9246 48.0576C14.9055 47.3037 14.0137 46.173 13.2493 44.4768C12.4849 42.7807 12.1027 40.5191 12.1027 37.6922C12.1027 34.1114 12.7397 31.2845 14.0137 29.2114C15.2877 27.1384 17.1986 26.196 19.6192 26.196C21.5301 26.196 22.9315 26.7614 24.0781 27.8922C25.0972 29.023 25.989 30.7191 26.4986 32.9807L22.4219 34.2999C22.2945 33.7345 22.1671 33.3576 21.9123 32.7922C21.6575 32.2268 21.4027 31.8499 21.0205 31.6614C20.6383 31.473 20.2561 31.2845 19.7466 31.2845C18.7274 31.2845 17.8356 31.8499 17.326 33.1691C16.9438 34.1114 16.689 35.6191 16.689 37.5037C16.689 39.9537 16.9438 41.6499 17.4534 42.5922C17.963 43.5345 18.6 43.9114 19.6192 43.9114C20.5109 43.9114 21.1479 43.5345 21.6575 42.7807C22.0397 42.0268 22.4219 40.896 22.5493 39.5768ZM31.9767 26.573H36.563V34.2999H41.5315V26.573H46.1178V48.623H41.5315V39.7653H36.563V48.623H31.9767V26.573Z" fill="white"/>
<path d="M45.6082 37.504C45.6082 33.9232 46.2452 31.0963 47.6466 29.0232C49.0479 26.9501 50.9589 26.0078 53.2521 26.0078C55.6726 26.0078 57.5836 26.9501 58.9849 29.0232C60.3863 31.0963 61.1507 33.9232 61.1507 37.504C61.1507 40.1424 60.8959 42.2155 60.2589 43.9117C59.7493 45.6078 58.8575 46.927 57.711 47.6809C56.5644 48.6232 55.163 49.0001 53.5068 49.0001C51.8507 49.0001 50.4493 48.6232 49.3027 47.8694C48.1562 47.1155 47.2644 45.7963 46.6274 44.1001C45.9904 42.404 45.6082 40.1424 45.6082 37.504ZM50.1945 37.6924C50.1945 39.954 50.4493 41.4617 51.0863 42.5924C51.5959 43.5347 52.3603 44.1001 53.3795 44.1001C54.3986 44.1001 55.163 43.7232 55.6726 42.5924C56.1822 41.6501 56.437 39.954 56.437 37.504C56.437 35.4309 56.1822 33.9232 55.5452 32.9809C55.0356 32.0386 54.2712 31.4732 53.2521 31.4732C52.3603 31.4732 51.5959 32.0386 50.9589 32.9809C50.3219 33.9232 50.1945 35.4309 50.1945 37.6924Z" fill="white"/>
<path d="M80.7699 26.573H85.3562V43.1576H92.4904V48.623H80.6425L80.7699 26.573Z" fill="white"/>
<path d="M78.8589 5.84234C75.9287 0.188493 69.9411 -0.18843 65.2274 4.90003C60.5137 9.98849 59.2397 18.8462 62.1698 24.5C65.1 30.1539 71.0876 30.5308 75.8013 25.4423C80.3876 20.1654 81.789 11.3077 78.8589 5.84234ZM75.5466 24.877C73.3808 27.327 70.8329 28.6462 68.2849 28.4577C65.8644 28.2693 63.6986 26.7616 62.4246 24.1231C61.1507 21.4846 60.6411 18.0923 61.2781 14.5116C61.915 10.9308 63.4438 7.53849 65.6096 5.27695C67.7753 2.82695 70.3233 1.50772 72.8712 1.69619C75.1644 1.88465 77.3301 3.39234 78.6041 6.0308C79.8781 8.66926 80.3876 12.0616 79.7507 15.6423C79.2411 19.2231 77.7123 22.427 75.5466 24.877Z" fill="white"/>
<path d="M65.8644 13.5693L67.5205 11.6847L69.5589 16.0193C69.9411 16.7731 70.1959 17.527 70.3233 18.2808C70.4507 18.8462 70.4507 19.6001 70.1959 20.1655C69.9411 20.9193 69.6863 21.4847 69.1767 22.0501C68.6671 22.6155 68.1575 22.9924 67.7753 22.9924C67.3931 23.1808 67.0109 22.9924 66.6287 22.8039C66.2465 22.427 65.8644 22.0501 65.6096 21.4847L67.0109 19.6001C67.1383 19.7885 67.2657 20.1655 67.3931 20.3539C67.5205 20.5424 67.6479 20.5424 67.7753 20.5424C67.9027 20.5424 68.0301 20.5424 68.0301 20.3539C68.1575 20.1655 68.2849 19.977 68.2849 19.6001C68.2849 19.2231 68.1575 18.8462 67.9027 18.4693L65.8644 13.5693ZM70.8328 16.2078L72.3616 14.5116C72.489 14.8885 72.7438 15.077 72.9986 15.077C73.3808 15.2655 73.6356 15.077 74.0178 14.8885C74.2726 14.7001 74.4 14.5116 74.4 14.1347C74.5274 13.7578 74.2726 13.1924 74.0178 13.0039H73.8904C73.6356 13.0039 73.3808 13.1924 72.8712 13.3808C71.9794 13.9462 71.3424 14.1347 70.8328 13.9462C70.3233 13.9462 69.9411 13.5693 69.6863 12.8155C69.4315 12.4385 69.4315 11.8731 69.4315 11.4962C69.4315 10.9308 69.5589 10.3655 69.6863 9.80007C69.9411 9.04622 70.3233 8.48084 70.8328 8.10391C71.4698 7.35007 72.1068 6.97314 72.7438 6.97314C73.2534 6.97314 73.763 7.35007 74.2726 8.10391L72.6164 9.98853C72.3616 9.42314 71.7246 9.23468 71.3424 9.80007C71.215 9.98853 71.0876 10.177 70.9602 10.3655C70.9602 10.5539 70.9602 10.7424 71.0876 10.9308C71.0876 11.1193 71.215 11.3078 71.215 11.3078C71.3424 11.3078 71.5972 11.3078 71.852 10.9308C72.7438 10.3655 73.3808 10.177 73.763 9.98853C74.1452 9.80007 74.5274 9.98853 74.9096 10.177C75.1644 10.3655 75.5465 10.7424 75.6739 11.1193C75.9287 11.6847 76.0561 12.2501 76.0561 12.8155C76.0561 13.3808 75.9287 14.1347 75.6739 14.7001C75.4191 15.4539 75.037 16.0193 74.5274 16.3962C73.6356 17.3385 72.8712 17.7155 72.2342 17.527C71.7246 17.3385 71.215 16.9616 70.8328 16.2078Z" fill="white"/>
<path d="M61.2781 14.7C61.2781 14.3231 61.4055 13.9462 61.4055 13.7577C61.2781 13.1923 61.1507 12.6269 60.8959 12.0615C60.5137 11.1192 59.8767 10.3654 58.9849 9.61154C58.0931 8.85769 56.6918 8.29231 54.6534 7.72692C53.889 7.53846 53.3794 7.16154 53.1246 6.97308C52.8698 6.78462 52.7424 6.40769 52.7424 6.03077C52.7424 5.46538 52.8698 5.08846 53.1246 4.71154C53.3794 4.33462 53.7616 4.14615 54.2712 4.14615C54.9082 4.14615 55.4178 4.33462 55.8 4.9C56.1822 5.27692 56.437 6.03077 56.5644 7.16154L60.8959 6.78462C60.7685 4.52308 60.1315 2.82692 59.1123 1.69615C58.2205 0.565385 56.8192 0 54.9082 0C53.3794 0 52.1055 0.376923 51.2137 0.942308C50.4493 1.31923 49.6849 2.26154 49.1753 3.39231C48.7931 4.33462 48.5383 5.46538 48.5383 6.59615C48.5383 8.29231 49.0479 9.8 49.8123 10.9308C50.7041 12.0615 52.1055 13.0038 54.1438 13.5692C55.4178 13.9462 56.1822 14.3231 56.437 14.8885C56.6918 15.2654 56.9466 15.8308 56.9466 16.3962C56.9466 16.9615 56.6918 17.5269 56.437 17.9038C56.0548 18.2808 55.5452 18.6577 54.9082 18.6577C54.0164 18.6577 53.3794 18.2808 52.8698 17.3385C52.615 16.7731 52.3603 16.0192 52.2329 14.8885L48.0287 15.0769C48.1561 17.3385 48.6657 19.0346 49.6849 20.5423C50.7041 22.05 52.3603 22.8038 54.9082 22.8038C56.3096 22.8038 57.5835 22.4269 58.4753 21.8615C59.3671 21.2962 60.1315 20.3538 60.6411 19.2231C60.7685 19.0346 60.7685 18.8462 60.8959 18.6577C60.8959 17.3385 61.0233 16.0192 61.2781 14.7Z" fill="white"/>
<path d="M79.2411 29.2114C77.9671 27.3268 76.311 26.3845 74.1452 26.196C72.3617 27.7037 70.3233 28.4576 68.4123 28.4576C68.1576 28.646 68.0302 29.023 67.7754 29.2114C66.374 31.2845 65.737 34.1114 65.737 37.6922C65.737 40.3307 66.1192 42.4037 66.7562 44.0999C67.3932 45.796 68.2849 46.9268 69.4315 47.8691C70.5781 48.623 71.8521 48.9999 73.6356 48.9999C75.2918 48.9999 76.6932 48.623 77.8397 47.6807C78.9863 46.7384 79.7507 45.4191 80.3877 43.9114C81.0247 42.2153 81.2795 40.1422 81.2795 37.5037C81.2795 33.923 80.5151 31.096 79.2411 29.2114ZM75.8014 42.4037C75.2918 43.346 74.5274 43.9114 73.5082 43.9114C72.4891 43.9114 71.7247 43.346 71.2151 42.4037C70.7055 41.4614 70.3233 39.7653 70.3233 37.5037C70.3233 35.2422 70.5781 33.7345 71.2151 32.6037C71.7247 31.6614 72.6165 31.096 73.5082 31.096C74.5274 31.096 75.2918 31.473 75.8014 32.6037C76.311 33.546 76.6932 35.0537 76.6932 37.1268C76.6932 39.7653 76.311 41.4614 75.8014 42.4037Z" fill="white"/>
</svg>
